<svg version='1.1' baseProfile='full' xmlns='http://www.w3.org/2000/svg' width='821.38330078125' height='147'><g transform='translate(5, 5)'><g transform='scale(1) translate(44.32500076293945, -50)'><g><g><polyline points="20,100 47,100 74,100 " style="fill: none; stroke: black;"></polyline></g></g><g><g><polyline points="94,100 121,100 148,100 " style="fill: none; stroke: black;"></polyline></g></g><g><g><polyline points="168,100 195,100 222,100 " style="fill: none; stroke: black;"></polyline></g></g><g><g><polyline points="242,100 269,100 296,100 " style="fill: none; stroke: black;"></polyline></g></g><g><g><polyline points="316,100 343,100 370,100 " style="fill: none; stroke: black;"></polyline></g></g><g><g><polyline points="390,100 417,100 444,100 " style="fill: none; stroke: black;"></polyline></g></g><g><g><polyline points="464,100 491,100 518,100 " style="fill: none; stroke: black;"></polyline></g></g><g><g><polyline points="538,100 565,100 592,100 " style="fill: none; stroke: black;"></polyline></g></g><g><g><polyline points="612,100 639,100 666,100 " style="fill: none; stroke: black;"></polyline></g></g><g><g><polyline points="686,100 713,100 740,100 " style="fill: none; stroke: black;"></polyline></g></g><g></g><g><g transform="translate(0, 50)"><path d="M 0 18.43621399176955 L 20 18.43621399176955 V 81.56378600823045 L 0 81.56378600823045 V 18.43621399176955 z" style="fill: rgb(33, 150, 243); stroke: rgb(33, 150, 243); stroke-width: 4px; stroke-linejoin: round;"></path><g></g><text text-anchor="middle" x="10" y="98.56378600823045" font-size="12">128</text><text text-anchor="middle" x="10" y="115.56378600823045" font-size="12">BatchNormalization</text></g></g><g><g transform="translate(74, 50)"><path d="M 0 0 L 20 0 V 100 L 0 100 V 0 z" style="fill: rgb(139, 195, 74); stroke: rgb(139, 195, 74); stroke-width: 4px; stroke-linejoin: round;"></path><g></g><text text-anchor="middle" x="10" y="117" font-size="12">256</text><text text-anchor="middle" x="10" y="134" font-size="12">Dense</text></g></g><g><g transform="translate(148, 50)"><path d="M 0 0 L 20 0 V 100 L 0 100 V 0 z" style="fill: rgb(244, 67, 54); stroke: rgb(244, 67, 54); stroke-width: 4px; stroke-linejoin: round;"></path><g></g><text text-anchor="middle" x="10" y="117" font-size="12">256</text><text text-anchor="middle" x="10" y="134" font-size="12">LeakyReLU</text></g></g><g><g transform="translate(222, 50)"><path d="M 0 0 L 20 0 V 100 L 0 100 V 0 z" style="fill: rgb(121, 85, 72); stroke: rgb(121, 85, 72); stroke-width: 4px; stroke-linejoin: round;"></path><g></g><text text-anchor="middle" x="10" y="117" font-size="12">256</text><text text-anchor="middle" x="10" y="134" font-size="12">Dropout</text></g></g><g><g transform="translate(296, 50)"><path d="M 0 18.43621399176955 L 20 18.43621399176955 V 81.56378600823045 L 0 81.56378600823045 V 18.43621399176955 z" style="fill: rgb(139, 195, 74); stroke: rgb(139, 195, 74); stroke-width: 4px; stroke-linejoin: round;"></path><g></g><text text-anchor="middle" x="10" y="98.56378600823045" font-size="12">128</text><text text-anchor="middle" x="10" y="115.56378600823045" font-size="12">Dense</text></g></g><g><g transform="translate(370, 50)"><path d="M 0 18.43621399176955 L 20 18.43621399176955 V 81.56378600823045 L 0 81.56378600823045 V 18.43621399176955 z" style="fill: rgb(244, 67, 54); stroke: rgb(244, 67, 54); stroke-width: 4px; stroke-linejoin: round;"></path><g></g><text text-anchor="middle" x="10" y="98.56378600823045" font-size="12">128</text><text text-anchor="middle" x="10" y="115.56378600823045" font-size="12">LeakyReLU</text></g></g><g><g transform="translate(444, 50)"><path d="M 0 18.43621399176955 L 20 18.43621399176955 V 81.56378600823045 L 0 81.56378600823045 V 18.43621399176955 z" style="fill: rgb(121, 85, 72); stroke: rgb(121, 85, 72); stroke-width: 4px; stroke-linejoin: round;"></path><g></g><text text-anchor="middle" x="10" y="98.56378600823045" font-size="12">128</text><text text-anchor="middle" x="10" y="115.56378600823045" font-size="12">Dropout</text></g></g><g><g transform="translate(518, 50)"><path d="M 0 32.26337448559671 L 20 32.26337448559671 V 67.7366255144033 L 0 67.7366255144033 V 32.26337448559671 z" style="fill: rgb(139, 195, 74); stroke: rgb(139, 195, 74); stroke-width: 4px; stroke-linejoin: round;"></path><g></g><text text-anchor="middle" x="10" y="84.7366255144033" font-size="12">32</text><text text-anchor="middle" x="10" y="101.7366255144033" font-size="12">Dense</text></g></g><g><g transform="translate(592, 50)"><path d="M 0 32.26337448559671 L 20 32.26337448559671 V 67.7366255144033 L 0 67.7366255144033 V 32.26337448559671 z" style="fill: rgb(244, 67, 54); stroke: rgb(244, 67, 54); stroke-width: 4px; stroke-linejoin: round;"></path><g></g><text text-anchor="middle" x="10" y="84.7366255144033" font-size="12">32</text><text text-anchor="middle" x="10" y="101.7366255144033" font-size="12">LeakyReLU</text></g></g><g><g transform="translate(666, 50)"><path d="M 0 32.26337448559671 L 20 32.26337448559671 V 67.7366255144033 L 0 67.7366255144033 V 32.26337448559671 z" style="fill: rgb(121, 85, 72); stroke: rgb(121, 85, 72); stroke-width: 4px; stroke-linejoin: round;"></path><g></g><text text-anchor="middle" x="10" y="84.7366255144033" font-size="12">32</text><text text-anchor="middle" x="10" y="101.7366255144033" font-size="12">Dropout</text></g></g><g><g transform="translate(740, 50)"><path d="M 0 35 L 20 35 V 65 L 0 65 V 35 z" style="fill: rgb(139, 195, 74); stroke: rgb(139, 195, 74); stroke-width: 4px; stroke-linejoin: round;"></path><g></g><text text-anchor="middle" x="10" y="82" font-size="12">13</text><text text-anchor="middle" x="10" y="99" font-size="12">Dense</text></g></g></g></g></svg>