<svg version='1.1' baseProfile='full' xmlns='http://www.w3.org/2000/svg' width='2275.88330078125' height='150'><g transform='translate(5, 5)'><g transform='scale(1) translate(134, -60)'><g><g><polyline points="10,120 17,120 24,120 " style="fill: none; stroke: black;"></polyline></g></g><g><g><polyline points="34,120 41,120 48,120 " style="fill: none; stroke: black;"></polyline></g></g><g><g><polyline points="58,120 65,120 72,120 " style="fill: none; stroke: black;"></polyline></g></g><g><g><polyline points="82,120 89,120 96,120 " style="fill: none; stroke: black;"></polyline></g></g><g><g><polyline points="106,120 113,120 120,120 " style="fill: none; stroke: black;"></polyline></g></g><g><g><polyline points="130,120 137,120 144,120 " style="fill: none; stroke: black;"></polyline></g></g><g><g><polyline points="154,120 161,120 168,120 " style="fill: none; stroke: black;"></polyline></g></g><g><g><polyline points="178,120 185,120 192,120 " style="fill: none; stroke: black;"></polyline></g></g><g><g><polyline points="202,120 209,120 216,120 " style="fill: none; stroke: black;"></polyline></g></g><g><g><polyline points="226,120 233,120 240,120 " style="fill: none; stroke: black;"></polyline></g></g><g><g><polyline points="250,120 257,120 264,120 " style="fill: none; stroke: black;"></polyline></g></g><g><g><polyline points="274,120 281,120 288,120 " style="fill: none; stroke: black;"></polyline></g></g><g><g><polyline points="378,120 385,120 392,120 " style="fill: none; stroke: black;"></polyline></g></g><g><g><polyline points="482,120 489,120 496,120 " style="fill: none; stroke: black;"></polyline></g></g><g><g><polyline points="586,120 593,120 600,120 " style="fill: none; stroke: black;"></polyline></g></g><g><g><polyline points="690,120 697,120 704,120 " style="fill: none; stroke: black;"></polyline></g></g><g><g><polyline points="794,120 801,120 808,120 " style="fill: none; stroke: black;"></polyline></g></g><g><g><polyline points="898,120 905,120 912,120 " style="fill: none; stroke: black;"></polyline></g></g><g><g><polyline points="1002,120 1009,120 1016,120 " style="fill: none; stroke: black;"></polyline></g></g><g><g><polyline points="1106,120 1113,120 1120,120 " style="fill: none; stroke: black;"></polyline></g></g><g><g><polyline points="1210,120 1217,120 1224,120 " style="fill: none; stroke: black;"></polyline></g></g><g><g><polyline points="1314,120 1321,120 1328,120 " style="fill: none; stroke: black;"></polyline></g></g><g><g><polyline points="1418,120 1425,120 1432,120 " style="fill: none; stroke: black;"></polyline></g></g><g><g><polyline points="1522,120 1529,120 1536,120 " style="fill: none; stroke: black;"></polyline></g></g><g><g><polyline points="1626,120 1633,120 1640,120 " style="fill: none; stroke: black;"></polyline></g></g><g><g><polyline points="1730,120 1737,120 1744,120 " style="fill: none; stroke: black;"></polyline></g></g><g><g><polyline points="1834,120 1841,120 1848,120 " style="fill: none; stroke: black;"></polyline></g></g><g><g><polyline points="1938,120 1945,120 1952,120 " style="fill: none; stroke: black;"></polyline></g></g><g><g><polyline points="1962,120 1969,120 1976,120 " style="fill: none; stroke: black;"></polyline></g></g><g><g><polyline points="1986,120 1993,120 2000,120 " style="fill: none; stroke: black;"></polyline></g></g><g><g><polyline points="2010,120 2017,120 2024,120 " style="fill: none; stroke: black;"></polyline></g></g><g><g><polyline points="2034,120 2041,120 2048,120 " style="fill: none; stroke: black;"></polyline></g></g><g><g><polyline points="2058,120 2065,120 2072,120 " style="fill: none; stroke: black;"></polyline></g></g><g><g><polyline points="2082,120 2089,120 2096,120 " style="fill: none; stroke: black;"></polyline></g></g><g><g><polyline points="2106,120 2113,120 2120,120 " style="fill: none; stroke: black;"></polyline></g></g><g></g><g><g transform="translate(0, 60)"><path d="M 0 0 L 10 0 V 120 L 0 120 V 0 z" style="fill: rgb(33, 150, 243); stroke: rgb(12, 124, 213); stroke-width: 4px; stroke-linejoin: round;"></path><g></g><text text-anchor="middle" x="5" y="137" font-size="12">128</text></g><g transform="translate(-134, 60)"><rect x="0" y="0" width="120" height="120" style="stroke: lightgrey; stroke-linejoin: round; stroke-width: 2px; fill-opacity: 0; stroke-dasharray: 4px;"></rect></g></g><g><g transform="translate(24, 60)"><path d="M 0 0 L 10 0 V 120 L 0 120 V 0 z" style="fill: rgb(139, 195, 74); stroke: rgb(113, 164, 54); stroke-width: 4px; stroke-linejoin: round;"></path><g></g><text text-anchor="middle" x="5" y="137" font-size="12">128</text></g></g><g><g transform="translate(48, 60)"><path d="M 0 0 L 10 0 V 120 L 0 120 V 0 z" style="fill: rgb(244, 67, 54); stroke: rgb(234, 28, 13); stroke-width: 4px; stroke-linejoin: round;"></path><g></g><text text-anchor="middle" x="5" y="137" font-size="12">128</text></g></g><g><g transform="translate(72, 60)"><path d="M 0 0 L 10 20.060180541624874 V 99.93981945837513 L 0 120 V 0 z" style="fill: rgb(121, 85, 72); stroke: rgb(89, 63, 53); stroke-width: 4px; stroke-linejoin: round;"></path><g></g><text text-anchor="middle" x="5" y="137" font-size="12">128</text></g></g><g><g transform="translate(96, 60)"><path d="M 0 20.060180541624874 L 10 20.060180541624874 V 99.93981945837513 L 0 99.93981945837513 V 20.060180541624874 z" style="fill: rgb(255, 235, 59); stroke: rgb(255, 230, 8); stroke-width: 4px; stroke-linejoin: round;"></path><g></g><text text-anchor="middle" x="5" y="116.93981945837513" font-size="12">128</text></g></g><g><g transform="translate(120, 60)"><path d="M 0 20.060180541624874 L 10 20.060180541624874 V 99.93981945837513 L 0 99.93981945837513 V 20.060180541624874 z" style="fill: rgb(156, 39, 176); stroke: rgb(119, 30, 134); stroke-width: 4px; stroke-linejoin: round;"></path><g></g><text text-anchor="middle" x="5" y="116.93981945837513" font-size="12">128</text></g></g><g><g transform="translate(144, 60)"><path d="M 0 20.060180541624874 L 10 20.060180541624874 V 99.93981945837513 L 0 99.93981945837513 V 20.060180541624874 z" style="fill: rgb(33, 150, 243); stroke: rgb(12, 124, 213); stroke-width: 4px; stroke-linejoin: round;"></path><g></g><text text-anchor="middle" x="5" y="116.93981945837513" font-size="12">128</text></g></g><g><g transform="translate(168, 60)"><path d="M 0 20.060180541624874 L 10 20.060180541624874 V 99.93981945837513 L 0 99.93981945837513 V 20.060180541624874 z" style="fill: rgb(139, 195, 74); stroke: rgb(113, 164, 54); stroke-width: 4px; stroke-linejoin: round;"></path><g></g><text text-anchor="middle" x="5" y="116.93981945837513" font-size="12">128</text></g></g><g><g transform="translate(192, 60)"><path d="M 0 20.060180541624874 L 10 20.060180541624874 V 99.93981945837513 L 0 99.93981945837513 V 20.060180541624874 z" style="fill: rgb(244, 67, 54); stroke: rgb(234, 28, 13); stroke-width: 4px; stroke-linejoin: round;"></path><g></g><text text-anchor="middle" x="5" y="116.93981945837513" font-size="12">128</text></g></g><g><g transform="translate(216, 60)"><path d="M 0 20.060180541624874 L 10 35.10531594784353 V 84.89468405215646 L 0 99.93981945837513 V 20.060180541624874 z" style="fill: rgb(121, 85, 72); stroke: rgb(89, 63, 53); stroke-width: 4px; stroke-linejoin: round;"></path><g></g><text text-anchor="middle" x="5" y="116.93981945837513" font-size="12">128</text></g></g><g><g transform="translate(240, 60)"><path d="M 0 35.10531594784353 L 10 35.10531594784353 V 84.89468405215646 L 0 84.89468405215646 V 35.10531594784353 z" style="fill: rgb(255, 235, 59); stroke: rgb(255, 230, 8); stroke-width: 4px; stroke-linejoin: round;"></path><g></g><text text-anchor="middle" x="5" y="101.89468405215646" font-size="12">128</text></g></g><g><g transform="translate(264, 60)"><path d="M 0 35.10531594784353 L 10 35.10531594784353 V 84.89468405215646 L 0 84.89468405215646 V 35.10531594784353 z" style="fill: rgb(156, 39, 176); stroke: rgb(119, 30, 134); stroke-width: 4px; stroke-linejoin: round;"></path><g></g><text text-anchor="middle" x="5" y="101.89468405215646" font-size="12">128</text></g></g><g><g transform="translate(288, 60)"><path d="M 0 35.10531594784353 L 90 35.10531594784353 V 84.89468405215646 L 0 84.89468405215646 V 35.10531594784353 z" style="fill: rgb(33, 150, 243); stroke: rgb(12, 124, 213); stroke-width: 4px; stroke-linejoin: round;"></path><g></g><text text-anchor="middle" x="45" y="101.89468405215646" font-size="12">256</text></g></g><g><g transform="translate(392, 60)"><path d="M 0 35.10531594784353 L 90 35.10531594784353 V 84.89468405215646 L 0 84.89468405215646 V 35.10531594784353 z" style="fill: rgb(139, 195, 74); stroke: rgb(113, 164, 54); stroke-width: 4px; stroke-linejoin: round;"></path><g></g><text text-anchor="middle" x="45" y="101.89468405215646" font-size="12">256</text></g></g><g><g transform="translate(496, 60)"><path d="M 0 35.10531594784353 L 90 35.10531594784353 V 84.89468405215646 L 0 84.89468405215646 V 35.10531594784353 z" style="fill: rgb(244, 67, 54); stroke: rgb(234, 28, 13); stroke-width: 4px; stroke-linejoin: round;"></path><g></g><text text-anchor="middle" x="45" y="101.89468405215646" font-size="12">256</text></g></g><g><g transform="translate(600, 60)"><path d="M 0 35.10531594784353 L 90 37.63289869608826 V 82.36710130391174 L 0 84.89468405215646 V 35.10531594784353 z" style="fill: rgb(121, 85, 72); stroke: rgb(89, 63, 53); stroke-width: 4px; stroke-linejoin: round;"></path><g></g><text text-anchor="middle" x="45" y="101.89468405215646" font-size="12">256</text></g></g><g><g transform="translate(704, 60)"><path d="M 0 37.63289869608826 L 90 37.63289869608826 V 82.36710130391174 L 0 82.36710130391174 V 37.63289869608826 z" style="fill: rgb(33, 150, 243); stroke: rgb(12, 124, 213); stroke-width: 4px; stroke-linejoin: round;"></path><g></g><text text-anchor="middle" x="45" y="99.36710130391174" font-size="12">256</text></g></g><g><g transform="translate(808, 60)"><path d="M 0 37.63289869608826 L 90 37.63289869608826 V 82.36710130391174 L 0 82.36710130391174 V 37.63289869608826 z" style="fill: rgb(139, 195, 74); stroke: rgb(113, 164, 54); stroke-width: 4px; stroke-linejoin: round;"></path><g></g><text text-anchor="middle" x="45" y="99.36710130391174" font-size="12">256</text></g></g><g><g transform="translate(912, 60)"><path d="M 0 37.63289869608826 L 90 37.63289869608826 V 82.36710130391174 L 0 82.36710130391174 V 37.63289869608826 z" style="fill: rgb(244, 67, 54); stroke: rgb(234, 28, 13); stroke-width: 4px; stroke-linejoin: round;"></path><g></g><text text-anchor="middle" x="45" y="99.36710130391174" font-size="12">256</text></g></g><g><g transform="translate(1016, 60)"><path d="M 0 37.63289869608826 L 90 39.518555667001 V 80.48144433299899 L 0 82.36710130391174 V 37.63289869608826 z" style="fill: rgb(121, 85, 72); stroke: rgb(89, 63, 53); stroke-width: 4px; stroke-linejoin: round;"></path><g></g><text text-anchor="middle" x="45" y="99.36710130391174" font-size="12">256</text></g></g><g><g transform="translate(1120, 60)"><path d="M 0 39.518555667001 L 90 39.518555667001 V 80.48144433299899 L 0 80.48144433299899 V 39.518555667001 z" style="fill: rgb(255, 235, 59); stroke: rgb(255, 230, 8); stroke-width: 4px; stroke-linejoin: round;"></path><g></g><text text-anchor="middle" x="45" y="97.48144433299899" font-size="12">256</text></g></g><g><g transform="translate(1224, 60)"><path d="M 0 39.518555667001 L 90 39.518555667001 V 80.48144433299899 L 0 80.48144433299899 V 39.518555667001 z" style="fill: rgb(156, 39, 176); stroke: rgb(119, 30, 134); stroke-width: 4px; stroke-linejoin: round;"></path><g></g><text text-anchor="middle" x="45" y="97.48144433299899" font-size="12">256</text></g></g><g><g transform="translate(1328, 60)"><path d="M 0 39.518555667001 L 90 39.518555667001 V 80.48144433299899 L 0 80.48144433299899 V 39.518555667001 z" style="fill: rgb(33, 150, 243); stroke: rgb(12, 124, 213); stroke-width: 4px; stroke-linejoin: round;"></path><g></g><text text-anchor="middle" x="45" y="97.48144433299899" font-size="12">256</text></g></g><g><g transform="translate(1432, 60)"><path d="M 0 39.518555667001 L 90 39.518555667001 V 80.48144433299899 L 0 80.48144433299899 V 39.518555667001 z" style="fill: rgb(139, 195, 74); stroke: rgb(113, 164, 54); stroke-width: 4px; stroke-linejoin: round;"></path><g></g><text text-anchor="middle" x="45" y="97.48144433299899" font-size="12">256</text></g></g><g><g transform="translate(1536, 60)"><path d="M 0 39.518555667001 L 90 39.518555667001 V 80.48144433299899 L 0 80.48144433299899 V 39.518555667001 z" style="fill: rgb(244, 67, 54); stroke: rgb(234, 28, 13); stroke-width: 4px; stroke-linejoin: round;"></path><g></g><text text-anchor="middle" x="45" y="97.48144433299899" font-size="12">256</text></g></g><g><g transform="translate(1640, 60)"><path d="M 0 39.518555667001 L 90 40 V 80 L 0 80.48144433299899 V 39.518555667001 z" style="fill: rgb(121, 85, 72); stroke: rgb(89, 63, 53); stroke-width: 4px; stroke-linejoin: round;"></path><g></g><text text-anchor="middle" x="45" y="97.48144433299899" font-size="12">256</text></g></g><g><g transform="translate(1744, 60)"><path d="M 0 40 L 90 40 V 80 L 0 80 V 40 z" style="fill: rgb(255, 235, 59); stroke: rgb(255, 230, 8); stroke-width: 4px; stroke-linejoin: round;"></path><g></g><text text-anchor="middle" x="45" y="97" font-size="12">256</text></g></g><g><g transform="translate(1848, 60)"><path d="M 0 40 L 90 40 V 80 L 0 80 V 40 z" style="fill: rgb(156, 39, 176); stroke: rgb(119, 30, 134); stroke-width: 4px; stroke-linejoin: round;"></path><g></g><text text-anchor="middle" x="45" y="97" font-size="12">256</text></g></g><g><g transform="translate(1952, 60)"><path d="M 0 0 L 10 0 V 120 L 0 120 V 0 z" style="fill: rgb(158, 158, 158); stroke: rgb(158, 158, 158); stroke-width: 4px; stroke-linejoin: round;"></path><g></g><text text-anchor="middle" x="5" y="137" font-size="12">768</text></g></g><g><g transform="translate(1976, 60)"><path d="M 0 0 L 10 0 V 120 L 0 120 V 0 z" style="fill: rgb(0, 150, 136); stroke: rgb(0, 150, 136); stroke-width: 4px; stroke-linejoin: round;"></path><g></g><text text-anchor="middle" x="5" y="137" font-size="12">128</text></g></g><g><g transform="translate(2000, 60)"><path d="M 0 0 L 10 0 V 120 L 0 120 V 0 z" style="fill: rgb(139, 195, 74); stroke: rgb(139, 195, 74); stroke-width: 4px; stroke-linejoin: round;"></path><g></g><text text-anchor="middle" x="5" y="137" font-size="12">128</text></g></g><g><g transform="translate(2024, 60)"><path d="M 0 0 L 10 0 V 120 L 0 120 V 0 z" style="fill: rgb(244, 67, 54); stroke: rgb(244, 67, 54); stroke-width: 4px; stroke-linejoin: round;"></path><g></g><text text-anchor="middle" x="5" y="137" font-size="12">128</text></g></g><g><g transform="translate(2048, 60)"><path d="M 0 22.26086956521739 L 10 22.26086956521739 V 97.73913043478261 L 0 97.73913043478261 V 22.26086956521739 z" style="fill: rgb(0, 150, 136); stroke: rgb(0, 150, 136); stroke-width: 4px; stroke-linejoin: round;"></path><g></g><text text-anchor="middle" x="5" y="114.73913043478261" font-size="12">64</text></g></g><g><g transform="translate(2072, 60)"><path d="M 0 22.26086956521739 L 10 22.26086956521739 V 97.73913043478261 L 0 97.73913043478261 V 22.26086956521739 z" style="fill: rgb(139, 195, 74); stroke: rgb(139, 195, 74); stroke-width: 4px; stroke-linejoin: round;"></path><g></g><text text-anchor="middle" x="5" y="114.73913043478261" font-size="12">64</text></g></g><g><g transform="translate(2096, 60)"><path d="M 0 22.26086956521739 L 10 22.26086956521739 V 97.73913043478261 L 0 97.73913043478261 V 22.26086956521739 z" style="fill: rgb(244, 67, 54); stroke: rgb(244, 67, 54); stroke-width: 4px; stroke-linejoin: round;"></path><g></g><text text-anchor="middle" x="5" y="114.73913043478261" font-size="12">64</text></g></g><g><g transform="translate(2120, 60)"><path d="M 0 40 L 10 40 V 80 L 0 80 V 40 z" style="fill: rgb(0, 150, 136); stroke: rgb(0, 150, 136); stroke-width: 4px; stroke-linejoin: round;"></path><g></g><text text-anchor="middle" x="5" y="97" font-size="12">13</text></g></g></g></g></svg>